<svg width="453.6274780273437px" height="125.61246948242187px" xmlns="http://www.w3.org/2000/svg" viewBox="23.186260986328136 12.193765258789064 453.6274780273437 125.61246948242187" style="background: rgba(0, 0, 0, 0);" preserveAspectRatio="xMidYMid"><defs><filter id="editing-extrusion" x="-100%" y="-100%" width="300%" height="300%"><feFlood result="color1" flood-color="#696969"></feFlood><feConvolveMatrix order="11,11" divisor="1" kernelMatrix="1 0 0 0 0 0 0 0 0 0 0 0 1 0 0 0 0 0 0 0 0 0 0 0 1 0 0 0 0 0 0 0 0 0 0 0 1 0 0 0 0 0 0 0 0 0 0 0 1 0 0 0 0 0 0 0 0 0 0 0 1 0 0 0 0 0 0 0 0 0 0 0 1 0 0 0 0 0 0 0 0 0 0 0 1 0 0 0 0 0 0 0 0 0 0 0 1 0 0 0 0 0 0 0 0 0 0 0 1 0 0 0 0 0 0 0 0 0 0 0 1" in="SourceAlpha" result="extrude"></feConvolveMatrix><feComposite in="color1" in2="extrude" result="comp-extrude" operator="in"></feComposite><feOffset dx="5.5" dy="5.5" in="comp-extrude" result="offset-extrude"></feOffset><feMerge><feMergeNode in="offset-extrude"></feMergeNode><feMergeNode in="SourceGraphic"></feMergeNode></feMerge></filter></defs><g filter="url(#editing-extrusion)"><g transform="translate(89.61500310897827, 100.1500015258789)"><path d="M52.42-45.12L52.42-45.12L52.42-45.12Q52.93-44.16 53.02-43.39L53.02-43.39L53.02-43.39Q53.12-42.62 53.12-41.15L53.12-41.15L53.12-5.63L53.12-5.63Q53.12-1.22 50.69-0.45L50.69-0.45L50.69-0.45Q49.47-0.06 47.62-0.06L47.62-0.06L47.62-0.06Q45.76-0.06 44.67-0.38L44.67-0.38L44.67-0.38Q43.58-0.70 43.01-1.15L43.01-1.15L43.01-1.15Q42.43-1.60 42.11-2.43L42.11-2.43L42.11-2.43Q41.79-3.52 41.79-5.76L41.79-5.76L41.79-27.20L41.79-27.20Q40.19-25.22 37.12-20.90L37.12-20.90L37.12-20.90Q34.05-16.58 33.22-15.49L33.22-15.49L33.22-15.49Q32.38-14.40 32.06-13.98L32.06-13.98L32.06-13.98Q31.74-13.57 30.50-12.83L30.50-12.83L30.50-12.83Q29.25-12.10 27.81-12.10L27.81-12.10L27.81-12.10Q26.37-12.10 25.18-12.77L25.18-12.77L25.18-12.77Q24-13.44 23.49-14.08L23.49-14.08L22.98-14.78L22.98-14.78Q21.70-16.38 17.92-21.60L17.92-21.60L17.92-21.60Q14.14-26.82 13.82-27.20L13.82-27.20L13.82-5.63L13.82-5.63Q13.82-4.16 13.73-3.42L13.73-3.42L13.73-3.42Q13.63-2.69 13.12-1.79L13.12-1.79L13.12-1.79Q12.16-0.06 8.13-0.06L8.13-0.06L8.13-0.06Q4.22-0.06 3.26-1.79L3.26-1.79L3.26-1.79Q2.75-2.69 2.66-3.46L2.66-3.46L2.66-3.46Q2.56-4.22 2.56-5.76L2.56-5.76L2.56-41.28L2.56-41.28Q2.56-42.75 2.66-43.49L2.66-43.49L2.66-43.49Q2.75-44.22 3.26-45.18L3.26-45.18L3.26-45.18Q4.22-46.85 8.26-46.85L8.26-46.85L8.26-46.85Q9.98-46.85 11.23-46.43L11.23-46.43L11.23-46.43Q12.48-46.02 12.86-45.57L12.86-45.57L13.25-45.18L27.78-26.11L27.78-26.11Q38.66-40.51 42.30-45.12L42.30-45.12L42.30-45.12Q43.39-46.85 47.46-46.85L47.46-46.85L47.46-46.85Q51.52-46.85 52.42-45.12ZM57.28-16.83L57.28-16.83Q57.28-24.51 62.66-29.50L62.66-29.50L62.66-29.50Q68.03-34.50 74.94-34.50L74.94-34.50L74.94-34.50Q81.86-34.50 87.17-29.54L87.17-29.54L87.17-29.54Q92.48-24.58 92.48-16.90L92.48-16.90L92.48-16.90Q92.48-11.58 89.73-7.46L89.73-7.46L89.73-7.46Q86.98-3.33 83.04-1.38L83.04-1.38L83.04-1.38Q79.10 0.58 74.88 0.58L74.88 0.58L74.88 0.58Q70.66 0.58 66.69-1.50L66.69-1.50L66.69-1.50Q62.72-3.58 60-7.65L60-7.65L60-7.65Q57.28-11.71 57.28-16.83L57.28-16.83ZM70.66-12.26L70.66-12.26L70.66-12.26Q72.70-10.69 74.82-10.69L74.82-10.69L74.82-10.69Q76.93-10.69 79.04-12.29L79.04-12.29L79.04-12.29Q81.15-13.89 81.15-17.02L81.15-17.02L81.15-17.02Q81.15-20.16 79.17-21.70L79.17-21.70L79.17-21.70Q77.18-23.23 74.88-23.23L74.88-23.23L74.88-23.23Q72.58-23.23 70.59-21.63L70.59-21.63L70.59-21.63Q68.61-20.03 68.61-16.93L68.61-16.93L68.61-16.93Q68.61-13.82 70.66-12.26ZM130.62-32.96L130.62-32.96L130.62-32.96Q133.95-30.98 133.95-28.74L133.95-28.74L133.95-28.74Q133.95-27.46 132.67-25.22L132.67-25.22L119.42-2.50L119.42-2.50Q118.78-1.41 117.38-0.54L117.38-0.54L117.38-0.54Q115.97 0.32 114.59 0.32L114.59 0.32L114.59 0.32Q113.22 0.32 111.97-0.35L111.97-0.35L111.97-0.35Q110.72-1.02 110.21-1.73L110.21-1.73L109.63-2.43L96.32-25.22L96.32-25.22Q95.04-27.33 95.04-28.67L95.04-28.67L95.04-28.67Q95.04-30.98 98.37-32.96L98.37-32.96L98.37-32.96Q100.80-34.37 102.21-34.37L102.21-34.37L102.21-34.37Q103.62-34.37 104.42-33.50L104.42-33.50L104.42-33.50Q105.22-32.64 106.11-30.91L106.11-30.91L114.50-14.78L122.88-30.91L122.88-30.91Q123.58-32.13 123.94-32.67L123.94-32.67L123.94-32.67Q124.29-33.22 125.06-33.76L125.06-33.76L125.06-33.76Q125.82-34.30 127.10-34.30L127.10-34.30L127.10-34.30Q128.38-34.30 130.62-32.96ZM137.47-5.63L137.47-28.10L137.47-28.10Q137.47-29.57 137.57-30.30L137.57-30.30L137.57-30.30Q137.66-31.04 138.11-32L138.11-32L138.11-32Q139.01-33.66 143.10-33.66L143.10-33.66L143.10-33.66Q146.18-33.66 147.46-32.58L147.46-32.58L147.46-32.58Q148.54-31.68 148.61-29.82L148.61-29.82L148.61-29.82Q148.67-29.18 148.67-27.97L148.67-27.97L148.67-5.57L148.67-5.57Q148.67-4.10 148.58-3.36L148.58-3.36L148.58-3.36Q148.48-2.62 147.97-1.66L147.97-1.66L147.97-1.66Q147.14 0 143.04 0L143.04 0L143.04 0Q139.01 0 138.11-1.73L138.11-1.73L138.11-1.73Q137.66-2.69 137.57-3.39L137.57-3.39L137.57-3.39Q137.47-4.10 137.47-5.63L137.47-5.63ZM148-39.97L148-39.97L148-39.97Q147.52-39.04 146.30-38.66L146.30-38.66L146.30-38.66Q145.09-38.27 143.07-38.27L143.07-38.27L143.07-38.27Q141.06-38.27 139.84-38.66L139.84-38.66L139.84-38.66Q138.62-39.04 138.14-40L138.14-40L138.14-40Q137.66-40.96 137.57-41.70L137.57-41.70L137.57-41.70Q137.47-42.43 137.47-43.90L137.47-43.90L137.47-43.90Q137.47-45.38 137.57-46.11L137.57-46.11L137.57-46.11Q137.66-46.85 138.11-47.74L138.11-47.74L138.11-47.74Q139.01-49.47 143.10-49.47L143.10-49.47L143.10-49.47Q147.14-49.47 147.97-47.74L147.97-47.74L147.97-47.74Q148.48-46.78 148.58-46.05L148.58-46.05L148.58-46.05Q148.67-45.31 148.67-43.84L148.67-43.84L148.67-43.84Q148.67-42.37 148.58-41.63L148.58-41.63L148.58-41.63Q148.48-40.90 148-39.97ZM186.30-20.90L186.30-20.90L186.30-20.90Q186.30-16.96 184.35-15.07L184.35-15.07L184.35-15.07Q182.40-13.18 180.03-13.18L180.03-13.18L164.86-13.18L164.86-13.18Q164.86-11.39 166.98-10.18L166.98-10.18L166.98-10.18Q169.09-8.96 171.20-8.96L171.20-8.96L171.20-8.96Q174.91-8.96 177.02-9.73L177.02-9.73L177.73-9.98L177.73-9.98Q179.26-10.69 180.29-10.69L180.29-10.69L180.29-10.69Q182.34-10.69 183.81-7.81L183.81-7.81L183.81-7.81Q184.64-6.08 184.64-4.86L184.64-4.86L184.64-4.86Q184.64 0.83 171.01 0.83L171.01 0.83L171.01 0.83Q166.27 0.83 162.59-0.80L162.59-0.80L162.59-0.80Q158.91-2.43 156.86-5.12L156.86-5.12L156.86-5.12Q152.83-10.30 152.83-16.70L152.83-16.70L152.83-16.70Q152.83-24.77 158.05-29.60L158.05-29.60L158.05-29.60Q163.26-34.43 171.07-34.43L171.07-34.43L171.07-34.43Q179.97-34.43 184.13-28.16L184.13-28.16L184.13-28.16Q186.30-24.83 186.30-20.90ZM164.74-19.01L172.80-19.01L172.80-19.01Q175.23-19.01 175.23-21.06L175.23-21.06L175.23-21.06Q175.23-22.53 174.11-23.42L174.11-23.42L174.11-23.42Q172.99-24.32 170.91-24.32L170.91-24.32L170.91-24.32Q168.83-24.32 166.78-22.62L166.78-22.62L166.78-22.62Q164.74-20.93 164.74-19.01L164.74-19.01ZM240.32-45.12L240.32-45.12L240.32-45.12Q240.83-44.16 240.93-43.39L240.93-43.39L240.93-43.39Q241.02-42.62 241.02-41.15L241.02-41.15L241.02-5.63L241.02-5.63Q241.02-1.22 238.59-0.45L238.59-0.45L238.59-0.45Q237.38-0.06 235.52-0.06L235.52-0.06L235.52-0.06Q233.66-0.06 232.58-0.38L232.58-0.38L232.58-0.38Q231.49-0.70 230.91-1.15L230.91-1.15L230.91-1.15Q230.34-1.60 230.02-2.43L230.02-2.43L230.02-2.43Q229.70-3.52 229.70-5.76L229.70-5.76L229.70-27.20L229.70-27.20Q228.10-25.22 225.02-20.90L225.02-20.90L225.02-20.90Q221.95-16.58 221.12-15.49L221.12-15.49L221.12-15.49Q220.29-14.40 219.97-13.98L219.97-13.98L219.97-13.98Q219.65-13.57 218.40-12.83L218.40-12.83L218.40-12.83Q217.15-12.10 215.71-12.10L215.71-12.10L215.71-12.10Q214.27-12.10 213.09-12.77L213.09-12.77L213.09-12.77Q211.90-13.44 211.39-14.08L211.39-14.08L210.88-14.78L210.88-14.78Q209.60-16.38 205.82-21.60L205.82-21.60L205.82-21.60Q202.05-26.82 201.73-27.20L201.73-27.20L201.73-5.63L201.73-5.63Q201.73-4.16 201.63-3.42L201.63-3.42L201.63-3.42Q201.54-2.69 201.02-1.79L201.02-1.79L201.02-1.79Q200.06-0.06 196.03-0.06L196.03-0.06L196.03-0.06Q192.13-0.06 191.17-1.79L191.17-1.79L191.17-1.79Q190.66-2.69 190.56-3.46L190.56-3.46L190.56-3.46Q190.46-4.22 190.46-5.76L190.46-5.76L190.46-41.28L190.46-41.28Q190.46-42.75 190.56-43.49L190.56-43.49L190.56-43.49Q190.66-44.22 191.17-45.18L191.17-45.18L191.17-45.18Q192.13-46.85 196.16-46.85L196.16-46.85L196.16-46.85Q197.89-46.85 199.14-46.43L199.14-46.43L199.14-46.43Q200.38-46.02 200.77-45.57L200.77-45.57L201.15-45.18L215.68-26.11L215.68-26.11Q226.56-40.51 230.21-45.12L230.21-45.12L230.21-45.12Q231.30-46.85 235.36-46.85L235.36-46.85L235.36-46.85Q239.42-46.85 240.32-45.12ZM245.18-16.83L245.18-16.83Q245.18-24.51 250.56-29.50L250.56-29.50L250.56-29.50Q255.94-34.50 262.85-34.50L262.85-34.50L262.85-34.50Q269.76-34.50 275.07-29.54L275.07-29.54L275.07-29.54Q280.38-24.58 280.38-16.90L280.38-16.90L280.38-16.90Q280.38-11.58 277.63-7.46L277.63-7.46L277.63-7.46Q274.88-3.33 270.94-1.38L270.94-1.38L270.94-1.38Q267.01 0.58 262.78 0.58L262.78 0.58L262.78 0.58Q258.56 0.58 254.59-1.50L254.59-1.50L254.59-1.50Q250.62-3.58 247.90-7.65L247.90-7.65L247.90-7.65Q245.18-11.71 245.18-16.83L245.18-16.83ZM258.56-12.26L258.56-12.26L258.56-12.26Q260.61-10.69 262.72-10.69L262.72-10.69L262.72-10.69Q264.83-10.69 266.94-12.29L266.94-12.29L266.94-12.29Q269.06-13.89 269.06-17.02L269.06-17.02L269.06-17.02Q269.06-20.16 267.07-21.70L267.07-21.70L267.07-21.70Q265.09-23.23 262.78-23.23L262.78-23.23L262.78-23.23Q260.48-23.23 258.50-21.63L258.50-21.63L258.50-21.63Q256.51-20.03 256.51-16.93L256.51-16.93L256.51-16.93Q256.51-13.82 258.56-12.26ZM303.30-33.73L303.30-33.73L303.30-33.73Q309.70-33.73 313.95-28.83L313.95-28.83L313.95-28.83Q318.21-23.94 318.21-16.90L318.21-16.90L318.21-5.63L318.21-5.63Q318.21-4.16 318.11-3.42L318.11-3.42L318.11-3.42Q318.02-2.69 317.57-1.79L317.57-1.79L317.57-1.79Q316.67-0.06 312.58-0.06L312.58-0.06L312.58-0.06Q308.03-0.06 307.33-2.43L307.33-2.43L307.33-2.43Q306.94-3.52 306.94-5.70L306.94-5.70L306.94-16.96L306.94-16.96Q306.94-19.58 305.44-21.06L305.44-21.06L305.44-21.06Q303.94-22.53 301.41-22.53L301.41-22.53L301.41-22.53Q298.88-22.53 297.31-20.99L297.31-20.99L297.31-20.99Q295.74-19.46 295.74-16.96L295.74-16.96L295.74-5.63L295.74-5.63Q295.74-4.16 295.65-3.42L295.65-3.42L295.65-3.42Q295.55-2.69 295.04-1.79L295.04-1.79L295.04-1.79Q294.21-0.06 290.11-0.06L290.11-0.06L290.11-0.06Q286.08-0.06 285.18-1.79L285.18-1.79L285.18-1.79Q284.74-2.75 284.64-3.49L284.64-3.49L284.64-3.49Q284.54-4.22 284.54-5.70L284.54-5.70L284.54-28.35L284.54-28.35Q284.54-29.76 284.64-30.50L284.64-30.50L284.64-30.50Q284.74-31.23 285.25-32.13L285.25-32.13L285.25-32.13Q286.14-33.73 290.18-33.73L290.18-33.73L290.18-33.73Q294.08-33.73 294.98-32.26L294.98-32.26L294.98-32.26Q295.62-31.17 295.62-29.63L295.62-29.63L295.62-29.63Q295.87-30.08 296.77-30.91L296.77-30.91L296.77-30.91Q297.66-31.74 298.50-32.26L298.50-32.26L298.50-32.26Q300.67-33.73 303.30-33.73Z" fill="#ff1e56"></path></g></g><style>text {
  font-size: 64px;
  font-family: Arial Black;
  dominant-baseline: central;
  text-anchor: middle;
}</style></svg>